<svg width="16" height="16" viewBox="0 0 16 16" fill="none" xmlns="http://www.w3.org/2000/svg">
<path fill-rule="evenodd" clip-rule="evenodd" d="M14.3799 11.2404C14.3799 12.9619 12.9621 14.3806 11.2406 14.3806H4.7596C3.03808 14.3806 1.62036 12.9619 1.62036 11.2404V4.76037C1.62036 3.03784 3.03808 1.62012 4.7596 1.62012H11.2406C12.9621 1.62012 14.3799 3.03784 14.3799 4.76037V11.2404ZM11.2405 0H4.75949C2.12658 0 0 2.12658 0 4.76051V11.2405C0 13.8744 2.12658 16 4.75949 16H11.2405C13.8734 16 16 13.8744 16 11.2405V4.76051C16 2.12658 13.8734 0 11.2405 0ZM7.99966 10.4305C6.68321 10.4305 5.46802 9.31656 5.46802 7.89883C5.46802 6.48212 6.58194 5.36719 7.99966 5.36719C9.41739 5.36719 10.5313 6.48212 10.5313 7.89883C10.5313 9.31656 9.41739 10.4305 7.99966 10.4305ZM7.9998 3.84863C5.77195 3.84863 3.8479 5.67142 3.8479 8.00154C3.8479 10.2284 5.67068 12.1524 7.9998 12.1524C10.2276 12.1524 12.1517 10.3296 12.1517 8.00154C12.1517 5.67142 10.3289 3.84863 7.9998 3.84863ZM13.1646 3.8486C13.1646 3.28961 12.7109 2.83594 12.1519 2.83594C11.593 2.83594 11.1393 3.28961 11.1393 3.8486C11.1393 4.4086 11.593 4.86125 12.1519 4.86125C12.7109 4.86125 13.1646 4.4086 13.1646 3.8486Z" fill="url(#paint0_linear_45_24)"/>
<defs>
<linearGradient id="paint0_linear_45_24" x1="3.76663" y1="1.06658" x2="7.10503" y2="13.9401" gradientUnits="userSpaceOnUse">
<stop stop-color="#FF9700"/>
<stop offset="0.9977" stop-color="#FF6800"/>
<stop offset="1" stop-color="#FF6802"/>
</linearGradient>
</defs>
</svg>
