<svg width="10" height="6" viewBox="0 0 10 6" fill="none"
     xmlns="http://www.w3.org/2000/svg">
<path d="M5.3902 5.7154L9.84025 1.26527C9.94325 1.16235 10 1.02495
10 0.878448C10 0.731945 9.94325 0.594548 9.84025 0.491622L9.51261
0.163901C9.29911 -0.0493492 8.95212 -0.0493492 8.73895 0.163901L5.00207
3.90078L1.26105 0.159754C1.15804 0.0568284 1.02072 -3.99559e-07 0.874302
-4.06075e-07C0.727718 -4.12598e-07 0.590402 0.0568284 0.487313 0.159754L0.159755
0.487475C0.0567479 0.590483 6.47297e-07 0.727799 6.41006e-07 0.874302C6.34715e-07
1.0208 0.0567478 1.1582 0.159755 1.26113L4.61387 5.7154C4.7172 5.81857 4.85516
5.87524 5.00183 5.87491C5.14906 5.87524 5.28695 5.81857 5.3902 5.7154Z"
      fill="#333333"/>
</svg>
