<svg width="121" height="56" viewBox="0 0 121 56" fill="none" xmlns="http://www.w3.org/2000/svg">
<path d="M35.9484 14.2884C38.1426 13.6035 39.0569 10.3617 39.0934 8.58093C38.9106 8.62659 25.7819 12.0967 25.7819 12.0967C25.7819 12.0967 38.9837 7.53077 39.0934 7.48511C36.5701 8.21566 5.37581 17.028 5.37581 17.028C2.92561 17.7129 0.914254 19.9958 0.292562 23.055C0.109711 23.8312 0 24.6988 0 25.6576L12.507 21.6852C12.507 21.6852 7.16774 36.6159 7.93571 47.2546C7.93571 47.2546 8.15514 42.5973 10.4225 34.1047C9.76422 38.9902 9.21567 44.0584 9.14253 47.9395C9.10596 49.8572 9.47166 51.7292 10.2396 53.373L11.0442 55.0624C12.2876 44.4237 14.5915 30.7715 18.7239 19.6762L35.9484 14.2884Z" fill="url(#paint0_linear_45_66)"/>
<path d="M62.1327 16.343C59.7191 17.2106 58.0003 20.1785 57.598 20.8634C57.7808 20.1328 59.1339 17.0736 61.4379 15.9778C60.743 15.6582 60.0116 15.5212 59.2071 15.7495C55.6963 16.7083 50.0645 30.2236 57.598 35.5201C60.3773 35.0178 66.7771 29.4017 63.9612 18.2608C63.8881 18.0325 63.1566 17.0736 62.1327 16.343ZM61.2184 20.3154C63.8881 26.0229 58.366 32.05 58.2928 31.9586C56.7203 28.2602 57.6711 24.9727 58.8779 22.781H58.8414C58.9511 22.5984 59.0608 22.4614 59.1339 22.2788C59.4631 21.7309 59.7922 21.2743 60.0848 20.909C61.2916 19.3109 62.0595 19.037 62.0595 19.037C62.0595 19.037 61.6207 19.5849 61.2184 20.3154Z" fill="url(#paint1_linear_45_66)"/>
<path d="M82.0997 12.2793C82.0997 12.2793 81.5512 11.5945 80.8198 10.8639C80.1615 12.5077 79.3935 15.2472 79.1375 18.3521C79.1375 18.3521 79.0278 13.9231 80.2347 10.316C79.101 9.35713 77.7113 8.58092 76.7239 9.53977C73.1766 13.0099 69.995 26.4338 70.763 30.0409C71.1287 31.8217 71.9698 32.7348 73.396 33.8307C73.0669 30.8171 74.8954 19.7219 77.7113 14.2427C77.0531 17.3476 76.7605 23.3746 79.3935 28.8081C80.1615 29.9496 82.0266 29.9496 82.4654 29.8583C79.5398 21.0916 82.0997 12.2793 82.0997 12.2793Z" fill="url(#paint2_linear_45_66)"/>
<path d="M120.682 11.0466C120.645 10.8639 120.426 10.8639 120.389 11.0466C119.95 13.1013 119.036 14.2427 118.451 14.608C117.244 12.5077 116.842 3.05614 116.842 2.91916C116.805 2.32558 115.854 1.32107 114.611 0.636178C112.417 1.68635 110.881 4.3346 110.515 4.97384C110.698 4.28894 111.868 1.54936 113.916 0.316555C113.185 0.0425976 112.38 -0.0943812 111.612 0.0882572C110.076 0.407874 106.931 6.48059 106.748 12.2794C104.81 17.9868 102.872 19.8132 101.043 20.2698C101.19 20.8177 101.409 21.1373 101.409 21.1373C100.495 20.4524 100.019 18.1695 100.019 18.1695C99.4344 15.3842 100.202 12.7816 101.08 10.8639C101.08 10.8183 101.117 10.8183 101.117 10.7726C101.446 10.042 101.811 9.44847 102.141 8.94622C103.274 7.11983 103.969 6.7089 103.969 6.7089C103.969 6.7089 103.42 7.57644 102.945 8.67227C102.945 9.40282 102.945 10.4073 102.945 11.2292C102.909 12.325 103.603 13.2382 104.481 13.3296C104.518 13.3296 104.554 13.3296 104.591 13.3296C104.956 12.4164 105.798 8.17 105.798 6.89153C105.798 6.4806 105.651 6.06966 105.395 5.79571C104.993 5.38477 104.444 4.83685 103.676 4.42592C101.446 5.43043 99.8366 8.17001 99.5075 8.80924C99.6903 8.12435 100.897 5.33912 102.982 4.10631C102.25 3.83235 101.373 3.69536 100.385 3.96932C98.5201 4.42592 96.4356 10.8639 96.143 12.3707C94.3877 17.7585 92.3398 23.3747 88.7193 24.2879C88.8656 24.8358 89.085 25.1554 89.085 25.1554C87.9513 24.1052 87.7319 22.1875 87.7319 22.1875C87.6953 22.0505 87.6954 21.8679 87.6588 21.6853C88.7193 21.6396 90.2187 19.9959 91.2792 18.8087C94.3145 15.3842 93.9123 10.2703 93.8757 9.95073C93.8391 9.67677 92.9614 8.71792 91.7181 8.03302C89.5239 8.94622 87.8782 11.5032 87.5125 12.0967C87.6953 11.4118 88.9753 8.8549 90.9867 7.66775C90.2187 7.34814 89.341 7.21115 88.4267 7.39379C85.684 7.98737 78.9185 22.7354 87.8416 27.8036C87.8416 27.8036 92.6323 28.2602 96.1065 18.6261C96.6184 20.7264 97.8253 22.5071 99.9829 23.603C103.42 23.329 105.651 19.9502 107.187 16.2517C107.699 17.9868 109.052 20.0415 110.808 20.909C112.526 20.0415 114.318 18.3521 115.964 14.6993L116.001 14.7906C116.257 15.6125 116.951 17.2106 117.756 18.4434C117.902 18.6717 118.158 18.7174 118.341 18.5804C119.95 17.3476 121.742 14.745 120.682 11.0466ZM88.9753 14.6537C89.0484 14.471 89.1216 14.3341 89.2313 14.1514C89.9993 12.6447 90.7672 11.7315 90.7672 11.7315C91.4986 10.7726 91.9375 10.4987 91.9375 10.4987C91.9375 10.4987 91.2792 11.5488 90.8038 12.7816C90.7307 16.1148 88.7925 19.8132 87.6222 21.0004C87.4759 18.5347 88.2073 16.3431 88.9753 14.6537ZM113.733 5.0195C114.318 6.20665 114.501 7.66774 114.318 9.08319C113.697 13.4208 112.051 15.8865 111.356 16.7997C111.466 17.6672 111.868 18.2608 111.868 18.2608C111.539 18.0325 111.283 17.6215 111.064 17.1649C111.027 17.1193 111.027 17.0736 111.027 17.028C110.661 16.1604 110.479 15.2929 110.479 15.2929C109.674 11.8228 110.698 8.8549 111.758 6.9372C112.6 5.43043 113.441 4.51724 113.441 4.51724C114.392 3.42141 114.94 3.23877 114.94 3.23877C114.94 3.23877 114.282 4.01499 113.733 5.0195Z" fill="url(#paint3_linear_45_66)"/>
<path d="M42.1657 24.2422C42.1657 24.2422 41.6537 23.3746 40.8857 22.5528C40.2275 24.1965 39.4595 26.8904 39.2401 29.9953C39.2401 29.9953 39.1304 25.612 40.3372 22.0049C39.5327 21.32 38.5453 20.8634 37.6676 21.5483C35.8391 22.9637 33.6449 28.9451 32.2918 33.0545C32.8038 29.8126 33.3523 26.8448 33.7911 25.8859C33.2792 24.2422 32.1455 22.9181 30.6827 22.6898C30.6827 22.6898 30.6827 22.7354 30.6461 22.8267C28.0131 37.3008 24.1366 40.8166 22.3081 40.9536C22.4544 41.5472 22.7104 41.9124 22.7104 41.9124C22.4178 41.7298 22.1984 41.3645 22.0156 40.9536V40.9079C21.6864 40.1317 21.467 39.1729 21.3573 38.351C21.3573 38.3053 21.3573 38.2597 21.3207 38.214C21.2476 37.8487 21.211 37.4835 21.211 37.1182C21.211 36.9812 21.211 36.9355 21.211 36.9355C22.1253 36.9355 23.7344 36.7986 24.7218 35.6571C27.6108 32.4609 27.5377 27.2557 27.5011 26.9817C27.4645 26.7534 26.8063 25.7946 25.7823 25.064C23.2955 25.7489 21.4304 28.6712 21.0282 29.3104C21.2476 28.5798 22.7104 25.5663 25.0875 24.6074C24.3926 24.2422 23.6247 24.0595 22.8201 24.1965C20.4065 24.6531 13.7507 38.7163 21.211 44.3781C21.211 44.3781 25.6726 45.2913 29.3662 35.0179C29.2199 36.7986 29.0736 38.7163 28.9639 40.7709C28.9639 40.7709 29.9879 43.0539 30.9387 43.4192C30.9387 43.4192 35.2539 30.1323 37.9601 25.8403C37.0093 28.6255 36.1682 34.059 38.0698 38.9902C38.6915 40.0404 40.4469 40.0404 40.8857 39.9491C38.8378 32.187 42.1657 24.2422 42.1657 24.2422ZM24.5389 28.6255C24.7218 32.187 22.3447 35.0178 21.1013 36.2506C21.1745 31.2281 24.5389 28.6255 24.5389 28.6255Z" fill="url(#paint4_linear_45_66)"/>
<path d="M52.8443 20.8634C52.8443 20.8634 52.3323 20.2698 51.6009 19.6306C50.9427 21.2743 50.1381 24.0139 49.8821 27.21C49.8821 27.21 49.7724 22.7354 50.9792 19.1283C49.8456 18.3064 48.4559 17.6215 47.5051 18.4434C43.9212 21.4569 41.471 33.1001 42.1658 36.2506C42.5316 37.8031 43.3361 38.5793 44.7623 39.5381C44.6526 38.5793 44.4332 36.342 45.0183 34.4242L43.9944 34.6982C44.7989 31.2281 46.152 28.1689 46.2617 28.1689L45.2012 28.5798C46.4446 25.612 48.4559 22.5071 48.4559 22.5071C48.4559 22.5071 47.9439 25.9316 49.041 28.4885L47.9805 28.0776C47.9805 28.0776 48.1268 31.5021 49.6993 33.3284L48.6753 33.4654C49.7359 36.7986 52.5883 36.1593 53.0272 36.068C50.2113 28.5798 52.8443 20.8634 52.8443 20.8634Z" fill="url(#paint5_linear_45_66)"/>
<defs>
<linearGradient id="paint0_linear_45_66" x1="20.4499" y1="20.9721" x2="28.6921" y2="46.4973" gradientUnits="userSpaceOnUse">
<stop stop-color="#FF9700"/>
<stop offset="0.9977" stop-color="#FF6800"/>
<stop offset="1" stop-color="#FF6802"/>
</linearGradient>
<linearGradient id="paint1_linear_45_66" x1="55.9955" y1="9.49439" x2="64.2377" y2="35.0197" gradientUnits="userSpaceOnUse">
<stop stop-color="#FF9700"/>
<stop offset="0.9977" stop-color="#FF6800"/>
<stop offset="1" stop-color="#FF6802"/>
</linearGradient>
<linearGradient id="paint2_linear_45_66" x1="72.8844" y1="4.04089" x2="81.1265" y2="29.5662" gradientUnits="userSpaceOnUse">
<stop stop-color="#FF9700"/>
<stop offset="0.9977" stop-color="#FF6800"/>
<stop offset="1" stop-color="#FF6802"/>
</linearGradient>
<linearGradient id="paint3_linear_45_66" x1="97.9081" y1="-4.03914" x2="106.15" y2="21.4861" gradientUnits="userSpaceOnUse">
<stop stop-color="#FF9700"/>
<stop offset="0.9977" stop-color="#FF6800"/>
<stop offset="1" stop-color="#FF6802"/>
</linearGradient>
<linearGradient id="paint4_linear_45_66" x1="27.3571" y1="18.7419" x2="35.5993" y2="44.2672" gradientUnits="userSpaceOnUse">
<stop stop-color="#FF9700"/>
<stop offset="0.9977" stop-color="#FF6800"/>
<stop offset="1" stop-color="#FF6802"/>
</linearGradient>
<linearGradient id="paint5_linear_45_66" x1="44.3464" y1="13.2561" x2="52.5885" y2="38.7814" gradientUnits="userSpaceOnUse">
<stop stop-color="#FF9700"/>
<stop offset="0.9977" stop-color="#FF6800"/>
<stop offset="1" stop-color="#FF6802"/>
</linearGradient>
</defs>
</svg>
